<svg xmlns="http://www.w3.org/2000/svg" xmlns:xlink="http://www.w3.org/1999/xlink" viewBox="0 0 175 112"><defs><style>.cls-1{fill:#fff;}.cls-2{fill:url(#Degradado_sin_nombre_3);}.cls-3{fill:url(#Degradado_sin_nombre_3-2);}.cls-4{fill:url(#Degradado_sin_nombre_3-3);}</style><linearGradient id="Degradado_sin_nombre_3" x1="25.19" y1="988.74" x2="64.1" y2="1026.03" gradientTransform="translate(0 -958.75)" gradientUnits="userSpaceOnUse"><stop offset="0" stop-color="#fff"/><stop offset="0.22" stop-color="#fff" stop-opacity="0.85"/><stop offset="0.59" stop-color="#fff" stop-opacity="0.61"/><stop offset="0.86" stop-color="#fff" stop-opacity="0.46"/><stop offset="1" stop-color="#fff" stop-opacity="0.4"/></linearGradient><linearGradient id="Degradado_sin_nombre_3-2" x1="7.73" y1="1024.99" x2="14.7" y2="993.17" xlink:href="#Degradado_sin_nombre_3"/><linearGradient id="Degradado_sin_nombre_3-3" x1="47.91" y1="1018.64" x2="20.14" y2="1042.48" xlink:href="#Degradado_sin_nombre_3"/></defs><title>genially</title><g id="Capa_1" data-name="Capa 1"><path class="cls-1" d="M121.18,45.38a2.09,2.09,0,0,1,3-3h0a2.09,2.09,0,0,1-3,3Zm-.1,19V50.15a1.57,1.57,0,0,1,3.13,0V64.42Z"/><path class="cls-1" d="M143.05,56.63v7.77h-2.89s-.2-1.2-.2-1.58a6.89,6.89,0,0,1-4.68,1.58,7.76,7.76,0,0,1-8-7.52v-.24a8,8,0,0,1,7.9-8h.09a7.76,7.76,0,0,1,7.77,7.74Zm-3.1,0a4.78,4.78,0,0,0-4.62-4.9h0a5,5,0,0,0-4.9,4.9,4.78,4.78,0,0,0,4.88,4.68h0A4.62,4.62,0,0,0,140,56.75h0a.37.37,0,0,1,0-.11Z"/><rect class="cls-1" x="146.77" y="41.63" width="3.13" height="22.85"/><rect class="cls-1" x="153.78" y="41.63" width="3.13" height="22.85"/><path class="cls-1" d="M170.22,49.56v8.49a3.25,3.25,0,1,1-6.47,0V49.56h-3.1v8.56A6.36,6.36,0,0,0,167,64.42a6.28,6.28,0,0,0,3.25-.92v2.27a3.39,3.39,0,0,1-3.4,3.38h0a3.44,3.44,0,0,1-3.07-1.85,1.42,1.42,0,0,0-.11-.18l-2.41,2a6.53,6.53,0,0,0,12.14-3.32V49.56Z"/><path class="cls-1" d="M73,47.92a7.94,7.94,0,1,0,4.81,14.23v1.74A4.83,4.83,0,0,1,73,68.59a4.77,4.77,0,0,1-4-2.15l-2.41,2a7.88,7.88,0,0,0,6.41,3.29,8,8,0,0,0,7.9-8V55.85A7.94,7.94,0,0,0,73,47.92Zm0,12.74a4.81,4.81,0,1,1,4.81-4.81h0A4.83,4.83,0,0,1,73,60.65Z"/><path class="cls-1" d="M96.64,61.17l-1.53-1.09h0l-.26-.19a5.2,5.2,0,0,1-.53.46,6.21,6.21,0,0,1-3.4.92A4.82,4.82,0,0,1,86.38,58H97.29a1.56,1.56,0,0,0,1.58-1.54h0a7.78,7.78,0,0,0-7.62-7.94h-.31a7.94,7.94,0,1,0,0,15.87h.68a7.7,7.7,0,0,0,5.79-2.66l-.77-.56ZM91,51.71a4.62,4.62,0,0,1,4.62,3.23H86.45A4.83,4.83,0,0,1,91,51.71Z"/><path class="cls-1" d="M109.27,48.57a7.9,7.9,0,0,0-5.07,1.85V48.88h-2.89v15.3h3.13V56.5a4.81,4.81,0,0,1,9.61,0h0v7.67h3.13V56.5A7.94,7.94,0,0,0,109.27,48.57Z"/><path class="cls-2" d="M38.15,40a21.67,21.67,0,0,1,13,17.34,21.65,21.65,0,0,0-34-22.47,21.67,21.67,0,0,1,21,5.14Z"/><path class="cls-3" d="M11.13,71.05A21.57,21.57,0,0,1,8.65,54.75a21.67,21.67,0,0,1,8.48-19.92A21.65,21.65,0,0,0,14.71,75.5,21.67,21.67,0,0,1,11.13,71.05Z"/><path class="cls-1" d="M11.19,41.67A21.55,21.55,0,0,0,8.65,54.75q.22-.92.51-1.77A18.91,18.91,0,0,1,37.23,39.61l.92.37a21.67,21.67,0,0,0-21-5.14A21.56,21.56,0,0,0,11.19,41.67Z"/><path class="cls-1" d="M11.19,41.67A21.55,21.55,0,0,0,8.65,54.75q.22-.92.51-1.77A18.91,18.91,0,0,1,37.23,39.61l.92.37a21.67,21.67,0,0,0-21-5.14A21.56,21.56,0,0,0,11.19,41.67Z"/><path class="cls-4" d="M49.08,62.61a21.56,21.56,0,0,1-12.6,10.22l-.49.24a21.67,21.67,0,0,1-21.26,2.46A21.65,21.65,0,0,0,51.16,57.31,21.67,21.67,0,0,1,49.08,62.61Z"/><path class="cls-1" d="M38.15,40l.63.62a18.91,18.91,0,0,1-2.3,32.23A21.67,21.67,0,0,0,51.16,57.31,21.67,21.67,0,0,0,38.15,40Z"/><path class="cls-1" d="M38.15,40l.63.62a18.91,18.91,0,0,1-2.3,32.23A21.67,21.67,0,0,0,51.16,57.31,21.67,21.67,0,0,0,38.15,40Z"/><path class="cls-1" d="M23.59,77.29A21.55,21.55,0,0,0,36,73.07,18.91,18.91,0,0,1,8.9,56.43q-.17-.84-.28-1.69A21.67,21.67,0,0,0,14.7,75.53,21.56,21.56,0,0,0,23.59,77.29Z"/><path class="cls-1" d="M23.59,77.29A21.55,21.55,0,0,0,36,73.07,18.91,18.91,0,0,1,8.9,56.43q-.17-.84-.28-1.69A21.67,21.67,0,0,0,14.7,75.53,21.56,21.56,0,0,0,23.59,77.29Z"/><path class="cls-1" d="M38.15,40l-.92-.37q.79.46,1.54,1Z"/><path class="cls-1" d="M38.15,40l-.92-.37q.79.46,1.54,1Z"/><path class="cls-1" d="M38.15,40l-.92-.37q.79.46,1.54,1Z"/><path class="cls-1" d="M9.15,53q-.3.87-.51,1.77.1.85.28,1.69V56A19,19,0,0,1,9.15,53Z"/><path class="cls-1" d="M9.15,53q-.3.87-.51,1.77.1.85.28,1.69V56A19,19,0,0,1,9.15,53Z"/><path class="cls-1" d="M9.15,53q-.3.87-.51,1.77.1.85.28,1.69V56A19,19,0,0,1,9.15,53Z"/><path class="cls-1" d="M36,73.07l.49-.24-.27.08Z"/><path class="cls-1" d="M41.42,56H36.7a8.09,8.09,0,1,1-2.91-6.21l3.05-3.7A12.85,12.85,0,1,0,41.46,56Z"/><circle class="cls-1" cx="32.28" cy="57.56" r="2.38"/></g></svg>