<svg enable-background="new 0 0 590.1 207.7" viewBox="0 0 590.1 207.7" xmlns="http://www.w3.org/2000/svg"><g fill="#fff"><path d="m124.7 72.9h30.1v-33.3c0-9.3-4.4-14-13.4-14h-3.4c-8.9 0-13.4 4.7-13.4 14v33.3zm0 21.3.1 36.6c0 9.3 4.5 13.9 13.4 13.9h3.9c8.9 0 13.4-4.6 13.4-13.9v-18h20.5v17.1c0 23.5-11.4 35.5-34 35.5h-4.5c-22.6 0-34-11.9-34-32.7v-89.5c0-26.3 11.4-38.2 34-38.2h4.5c22.6 0 34 11.9 34 35.4l-.1 53.7h-51.2z"/><path d="m210.9 136.3c5.8 5.2 12.5 8.1 19.5 8.1 7.8 0 12.3-3.8 12.3-12.8v-93c0-9-4.5-12.8-12.3-12.8-7 0-13.7 2.9-19.5 8.1zm-21.2-129.5h21.2v10.2c5-5.5 13.6-11.9 25.9-11.9 18.1 0 27 12.5 27 31.1v98.2c0 18.6-8.9 31.1-27 31.1-12.3 0-20.9-6.1-25.9-11.3v50.6h-21.2z"/><path d="m327.3 137.2v-51.7l-19.2 7.6c-7.8 3.2-10.3 7.3-10.3 16.3v23.8c0 7.6 3.6 11.3 10.3 11.3 6.4 0 12.3-2.3 19.2-7.3m-50.7-28.2c0-19.5 6.1-27.3 22.3-33.1l28.4-10.2v-26.1c0-9.3-4.5-14.2-13.4-14.2h-3.4c-8.9 0-13.4 4.9-13.4 14.2v22.2h-20.6v-21.3c0-23.5 11.4-35.4 34-35.4h4c22.6 0 34 11.9 34 35.4v123.2h-21.2v-9.9c-5.8 5.8-13.7 11.6-25.9 11.6-17 0-24.8-10.2-24.8-27.6z"/><path d="m434.1 163.7h-21.2v-126.4c0-7.8-3.6-11.3-10-11.3-5.8 0-12 2.3-19.5 7.8v129.9h-21.2v-156.9h21.2v10.2c6.2-6.1 14.2-12 25.9-12 10.9 0 18.1 4.7 22 12.8 7.6-6.7 16.5-12.8 28.7-12.8 16.4 0 24.8 10.5 24.8 27.6v131h-21.2v-126.3c0-7.8-3.6-11.3-10-11.3-5.8 0-12 2.3-19.5 7.8z"/></g><g fill="#00abcd"><path d="m22 75.2v21.2l54.4 53.3v-29.5l-35.6-34.7 35.6-35.4v-28.9z"/><path d="m511.7 50.1 35.6 35.4-35.6 34.8v29.4l54.4-53.3v-21.2l-54.4-54z"/></g></svg>