<svg xmlns="http://www.w3.org/2000/svg" viewBox="0 0 110 28.4"><defs><style>.cls-1{fill:#fff;}</style></defs><title>Layer 1</title><g id="Layer_2" data-name="Layer 2"><g id="Layer_1-2" data-name="Layer 1"><path class="cls-1" d="M21.2,14l.1.2L14.2,28.4,0,0H9.4l8.4,16.7A8.19,8.19,0,0,0,21.2,14m13.2,2.7L26,0H16.6L30.8,28.3l7.1-14.2-.1-.2a8.28,8.28,0,0,1-3.4,2.8"/><path class="cls-1" d="M57.9,12.3V4.8h4.5v1H59V8h3.1V9H59v2.3h3.4v1Zm-2.1,0V9H52.3v3.3H51.2V4.8h1.1V8h3.5V4.8h1.1v7.5ZM45.1,4.7l.5,1h1.7v6.5h1.1V5.7h2v-1Z"/><path class="cls-1" d="M101,18.3H98.8v2.9H97.7V13.7H101a2.23,2.23,0,0,1,2.4,2.3,2.18,2.18,0,0,1-2.4,2.3m0-3.5H98.9v2.5H101a1.18,1.18,0,0,0,1.3-1.2,1.21,1.21,0,0,0-1.3-1.3m-8,0a2.7,2.7,0,1,1-2.7,2.7A2.69,2.69,0,0,1,93,14.8m0-1.1a3.9,3.9,0,1,0,3.9,3.9A3.84,3.84,0,0,0,93,13.7M58.6,14.8a2.7,2.7,0,1,1-2.7,2.7,2.69,2.69,0,0,1,2.7-2.7m0-1.1a3.9,3.9,0,1,0,3.9,3.9,3.9,3.9,0,0,0-3.9-3.9m10.6,7.6H68l-1.6-3.2H64.5v3.2H63.4V13.8h3.4A2.13,2.13,0,0,1,69.1,16a2,2,0,0,1-1.5,2Zm-2.6-6.5H64.4v2.3h2.2c.8,0,1.3-.4,1.3-1.2s-.5-1.1-1.3-1.1m-11.8-1-2.3,7.5h-.9l-1.7-5.6-1.7,5.6h-.9L45,13.8h1.2l1.6,5.3,1.6-5.3h1L52,19.1l1.6-5.3Zm33.6,7.5V13.8H87.3V17H83.8V13.8H82.6v7.5h1.1V18h3.5v3.3ZM76,21.3l-2.4-4.8,2.2-2.7H74.4l-3.1,3.8V13.8H70.2v7.5h1.1v-2l1.5-1.9,2,3.9Zm3.8-4.1-1-.3c-.8-.3-1.2-.6-1.2-1.1,0-.3.1-1.1,1.4-1.1A1.43,1.43,0,0,1,80.5,16v.1h1.1V16A2.4,2.4,0,0,0,79,13.7a2.33,2.33,0,0,0-2.6,2.1c0,1,.6,1.6,1.9,2.1l1,.4c.8.3,1.2.7,1.2,1.1,0,.6-.6,1.1-1.5,1.1s-1.5-.4-1.6-1.3v-.1H76.2v.1c.1,1.4,1.1,2.2,2.8,2.2s2.7-.9,2.7-2.1c.1-1-.6-1.7-1.9-2.1"/><path class="cls-1" d="M106.1,14.2v2.6h-.5V14.2h-.8v-.4h2.1v.4Zm3.3,2.6v-2l-.7,1.5h-.3l-.7-1.5v2h-.5v-3h.5l.9,1.9.9-1.9h.5v3Z"/></g></g></svg>