<svg viewBox="0 0 110 28.4" xmlns="http://www.w3.org/2000/svg"><g fill="#003b5c"><path d="m21.2 14 .1.2-7.1 14.2-14.2-28.4h9.4l8.4 16.7a8.19 8.19 0 0 0 3.4-2.7m13.2 2.7-8.4-16.7h-9.4l14.2 28.3 7.1-14.2-.1-.2a8.28 8.28 0 0 1 -3.4 2.8"/><path d="m57.9 12.3v-7.5h4.5v1h-3.4v2.2h3.1v1h-3.1v2.3h3.4v1zm-2.1 0v-3.3h-3.5v3.3h-1.1v-7.5h1.1v3.2h3.5v-3.2h1.1v7.5zm-10.7-7.6.5 1h1.7v6.5h1.1v-6.5h2v-1z"/><path d="m101 18.3h-2.2v2.9h-1.1v-7.5h3.3a2.23 2.23 0 0 1 2.4 2.3 2.18 2.18 0 0 1 -2.4 2.3m0-3.5h-2.1v2.5h2.1a1.18 1.18 0 0 0 1.3-1.2 1.21 1.21 0 0 0 -1.3-1.3m-8 0a2.7 2.7 0 1 1 -2.7 2.7 2.69 2.69 0 0 1 2.7-2.7m0-1.1a3.9 3.9 0 1 0 3.9 3.9 3.84 3.84 0 0 0 -3.9-3.9m-34.4 1.1a2.7 2.7 0 1 1 -2.7 2.7 2.69 2.69 0 0 1 2.7-2.7m0-1.1a3.9 3.9 0 1 0 3.9 3.9 3.9 3.9 0 0 0 -3.9-3.9m10.6 7.6h-1.2l-1.6-3.2h-1.9v3.2h-1.1v-7.5h3.4a2.13 2.13 0 0 1 2.3 2.2 2 2 0 0 1 -1.5 2zm-2.6-6.5h-2.2v2.3h2.2c.8 0 1.3-.4 1.3-1.2s-.5-1.1-1.3-1.1m-11.8-1-2.3 7.5h-.9l-1.7-5.6-1.7 5.6h-.9l-2.3-7.5h1.2l1.6 5.3 1.6-5.3h1l1.6 5.3 1.6-5.3zm33.6 7.5v-7.5h-1.1v3.2h-3.5v-3.2h-1.2v7.5h1.1v-3.3h3.5v3.3zm-12.4 0-2.4-4.8 2.2-2.7h-1.4l-3.1 3.8v-3.8h-1.1v7.5h1.1v-2l1.5-1.9 2 3.9zm3.8-4.1-1-.3c-.8-.3-1.2-.6-1.2-1.1 0-.3.1-1.1 1.4-1.1a1.43 1.43 0 0 1 1.5 1.3v.1h1.1v-.1a2.4 2.4 0 0 0 -2.6-2.3 2.33 2.33 0 0 0 -2.6 2.1c0 1 .6 1.6 1.9 2.1l1 .4c.8.3 1.2.7 1.2 1.1 0 .6-.6 1.1-1.5 1.1s-1.5-.4-1.6-1.3v-.1h-1.2v.1c.1 1.4 1.1 2.2 2.8 2.2s2.7-.9 2.7-2.1c.1-1-.6-1.7-1.9-2.1"/><path d="m106.1 14.2v2.6h-.5v-2.6h-.8v-.4h2.1v.4zm3.3 2.6v-2l-.7 1.5h-.3l-.7-1.5v2h-.5v-3h.5l.9 1.9.9-1.9h.5v3z"/></g></svg>