<svg xmlns="http://www.w3.org/2000/svg" viewBox="0 0 175 112"><defs><style>.cls-1{fill:#fff;}</style></defs><title>don-folio</title><g id="Capa_1" data-name="Capa 1"><g id="Primer_plano" data-name="Primer plano"><path class="cls-1" d="M67,63.06a3.37,3.37,0,0,0-1.23-1.24,5.92,5.92,0,0,0-1.36-1.37A5.7,5.7,0,0,1,65,58.18a3.16,3.16,0,0,0,.45-1.71,1.61,1.61,0,0,0-.58-1.09,1.68,1.68,0,0,0-1.39-.61h0c-2.41.17-3.62,2-3.58,5.57a7.51,7.51,0,0,0-2.06,2.34,6.78,6.78,0,0,0-.94,2.57,16.8,16.8,0,0,0-1.4,2.33A5.1,5.1,0,0,0,55,71.43c-.25,2,.06,3.54.91,4.43a1.79,1.79,0,0,0,1.12,1.35,1.32,1.32,0,0,0,.65.19,1.12,1.12,0,0,0,.59-.17,1.43,1.43,0,0,0,.79-.66l.92-1.3a14,14,0,0,1,3.55-3.54,8.51,8.51,0,0,0,2.75-3.9,2.31,2.31,0,0,0,.79-.45,2.13,2.13,0,0,0,.46-.52l.11-.16a.18.18,0,0,0,0-.09A5.93,5.93,0,0,0,67,63.06ZM55.64,71.3a7.48,7.48,0,0,1,1.42-3.42,9,9,0,0,0,.49,2.72A5.74,5.74,0,0,0,56,74.94a6.1,6.1,0,0,1-.33-3.64ZM64,70.48a8.72,8.72,0,0,1-1.2,1l-1.19,1A11.16,11.16,0,0,0,60,74.39l-1.46,2a.89.89,0,0,1-1.2.37c-.27-.05-.49-.33-.7-.7a3.06,3.06,0,0,1-.27-1.3,7.09,7.09,0,0,1,1.2-4l.27.65a4.45,4.45,0,0,0,.43.49,11.88,11.88,0,0,1-.92-5.7,4.73,4.73,0,0,0-.26,1.25,6.51,6.51,0,0,0-1.68,3.15,6,6,0,0,1,.92-3.53c.27-.43.54-1,.86-1.52l.64-1.09a1.25,1.25,0,0,0-.37.27,10,10,0,0,1,3.37-4.67c0-.05-.06-.05-.22,0s-.06.05-.16.05a5.11,5.11,0,0,1,.59-3,3,3,0,0,1,2.44-1.85,2,2,0,0,1,.87.27,1.2,1.2,0,0,1,.54,1.09A2.76,2.76,0,0,1,64.49,58,6.23,6.23,0,0,0,64,60.29a1.64,1.64,0,0,0-1.36-.22,5.23,5.23,0,0,1,2.44,1.74,2.47,2.47,0,0,0-2.33.87,2.55,2.55,0,0,0-.6,1.68A2.86,2.86,0,0,0,59.23,66a10.92,10.92,0,0,0-.54,1.47,2.62,2.62,0,0,0-.06.87,6.11,6.11,0,0,1,1.12-2.5,2.61,2.61,0,0,1,2.39-1.36,3.88,3.88,0,0,0,.6,1.74A2.89,2.89,0,0,0,64,67.38a3.37,3.37,0,0,0,1.74.37A7.78,7.78,0,0,1,64,70.48Zm3-3.91-.06.06H67a1.71,1.71,0,0,1-1.25.75,2.38,2.38,0,0,1-1.46-.22,3.57,3.57,0,0,1-1.25-1,2.77,2.77,0,0,1-.55-1.56,2.29,2.29,0,0,1,.37-1.47,2.41,2.41,0,0,1,1-.92,1.94,1.94,0,0,1,1.21,0,1.84,1.84,0,0,1,1.45.91,4.3,4.3,0,0,1,.65,2.28A1.69,1.69,0,0,1,67,66.57Z"/><path class="cls-1" d="M65.55,66.55a2.48,2.48,0,0,0,.52-.42,2,2,0,0,0,.37-1.19,2.41,2.41,0,0,0-.37-1.25,1.32,1.32,0,0,0-1-.49h-.15a1.5,1.5,0,0,0-.6.47,1.78,1.78,0,0,0-.16,1,3.72,3.72,0,0,0,.43,1.09,1.5,1.5,0,0,0,.86.75A.12.12,0,0,0,65.55,66.55Z"/><path class="cls-1" d="M103.2,105.88a3.56,3.56,0,0,0-.13-.87,5.25,5.25,0,0,0-2.66-3.32l-.16-.08A4.25,4.25,0,0,0,99,100.15,6.25,6.25,0,0,0,95.06,99c-.16,0-.3,0-.45,0l-2.28-9.36a.71.71,0,0,0-1.38.3v0l2.25,9.23a5.93,5.93,0,0,0-2.08.92,3.9,3.9,0,0,0-1.62,2.35,4.39,4.39,0,0,0-1.71,3.37,3.3,3.3,0,0,0,.12.83l.32,2.72a.71.71,0,0,0,.54.61c3,.69,5.16,1.14,5.88,1.21a18.14,18.14,0,0,0,2.11.13A16.07,16.07,0,0,0,103,110.1a.71.71,0,0,0,.43-.71Z"/><path class="cls-1" d="M89.68,30.42a9.52,9.52,0,0,0-2.28,2.12A8.29,8.29,0,0,1,89,29.45a3,3,0,0,1,2.12-1.25,2,2,0,0,1,1.79,1.25,9.42,9.42,0,0,1,.75,4.4c-.54-1.09-.92-1.79-1.12-2.17a3,3,0,0,0-1.25-1.3A1.79,1.79,0,0,0,89.68,30.42Z"/><path class="cls-1" d="M80.29,32c-.65-1.52-1.41-2.34-2.28-2.34s-1.84.75-2.93,2.44a11.23,11.23,0,0,1,1.2-3.2A3.09,3.09,0,0,1,78,27.38a1.27,1.27,0,0,1,1.52.75A8.32,8.32,0,0,1,80.29,32Z"/><path class="cls-1" d="M75.89,48a4.1,4.1,0,0,1-3.37-1.76h0a6.52,6.52,0,0,1-1.32-4.18,6.61,6.61,0,0,1,1.32-4.24,4.12,4.12,0,0,1,3.37-1.76,4,4,0,0,1,3.26,1.77,6.74,6.74,0,0,1,1.37,4.23,6.6,6.6,0,0,1-1.39,4.19A4,4,0,0,1,75.89,48Zm-2.82-2.2a3.46,3.46,0,0,0,2.82,1.5,3.34,3.34,0,0,0,2.7-1.5,5.83,5.83,0,0,0,1.23-3.74,6,6,0,0,0-1.23-3.81,3.35,3.35,0,0,0-2.7-1.5,3.44,3.44,0,0,0-2.82,1.5,5.75,5.75,0,0,0-1.17,3.8,5.83,5.83,0,0,0,1.17,3.74Z"/><path class="cls-1" d="M78.17,39.32a1.85,1.85,0,0,0-3.53,0,7.24,7.24,0,0,0,0,6.24,1.85,1.85,0,0,0,3.53,0,6.3,6.3,0,0,0,.7-3.15A6.23,6.23,0,0,0,78.17,39.32Zm-3.31,2.62a1.61,1.61,0,0,1-.54-1.12,1.52,1.52,0,0,1,.54-1.12,1.77,1.77,0,0,1,1.3-.49,1.73,1.73,0,0,1,1.25.49A1.37,1.37,0,0,1,78,40.82a1.43,1.43,0,0,1-.54,1.12,1.67,1.67,0,0,1-1.25.44,1.73,1.73,0,0,1-1.3-.45Zm2.82,3.69a1.5,1.5,0,0,1-1,.33,1.57,1.57,0,0,1-1-.33,1.12,1.12,0,0,1-.37-.92,1.06,1.06,0,0,1,.37-.82,1.36,1.36,0,0,1,1-.37,1.31,1.31,0,0,1,1,.37,1.06,1.06,0,0,1,.37.82,1.12,1.12,0,0,1-.37.91Z"/><path class="cls-1" d="M87.56,49a4.63,4.63,0,0,1-3.74-1.87,7,7,0,0,1-1.5-4.46,7.39,7.39,0,0,1,1.5-4.49,4.72,4.72,0,0,1,3.74-1.83,4.53,4.53,0,0,1,3.64,1.81,7,7,0,0,1,1.5,4.51,6.65,6.65,0,0,1-1.5,4.46A4.44,4.44,0,0,1,87.56,49Zm0-11.94a4,4,0,0,0-3.2,1.56A6.6,6.6,0,0,0,83,42.68a6.28,6.28,0,0,0,1.35,4,4,4,0,0,0,3.2,1.61,3.74,3.74,0,0,0,3.09-1.6,6,6,0,0,0,1.34-4,6.34,6.34,0,0,0-1.34-4.07A3.85,3.85,0,0,0,87.56,37.07Z"/><path class="cls-1" d="M89.84,39.59a2.3,2.3,0,0,0-2-1.36c-.82,0-1.35.43-1.9,1.36a6.36,6.36,0,0,0-.8,3.31,6.58,6.58,0,0,0,.82,3.37c.54.87,1.12,1.41,1.9,1.41a2.52,2.52,0,0,0,2-1.41,6.59,6.59,0,0,0,.82-3.37A6.38,6.38,0,0,0,89.84,39.59Zm-3.69,2.77a1.53,1.53,0,0,1-.6-1.25,1.43,1.43,0,0,1,.6-1.19,2.28,2.28,0,0,1,2.82,0,1.59,1.59,0,0,1,.6,1.19,1.71,1.71,0,0,1-.6,1.25A2.28,2.28,0,0,1,86.15,42.36Zm3.15,3.91a1.76,1.76,0,0,1-1.12.43,1.5,1.5,0,0,1-1.09-.43,1.12,1.12,0,0,1,0-1.85A1.5,1.5,0,0,1,88.17,44a1.76,1.76,0,0,1,1.12.43,1.2,1.2,0,0,1,.15,1.7Z"/><path class="cls-1" d="M64.27,15.76a1,1,0,0,1-.65-.33l-2.82-3.8h-.06V15c0,.49-.22.75-.7.75s-.65-.27-.65-.75V9.84c0-.49.22-.71.65-.71a.62.62,0,0,1,.59.33l2.93,3.85V9.84c0-.49.22-.71.71-.71s.65.22.65.71V15C64.92,15.49,64.71,15.76,64.27,15.76Z"/><path class="cls-1" d="M70.84,5.72l2.71.91.72-1.78c.16-.49.43-.6.81-.43a.63.63,0,0,1,.44.92l-1.8,4.83a.63.63,0,0,1-.71.53l-.16,0a.7.7,0,0,1-.47-.88l0,0,.75-1.84-2.77-1-.62,1.9a.63.63,0,0,1-.76.47l-.11,0a.6.6,0,0,1-.37-.92l1.73-4.89A.59.59,0,0,1,71.17,3a.59.59,0,0,1,.37.87Z"/><path class="cls-1" d="M90.6,7l.05.49c-.11.43-.37.54-.82.49a.77.77,0,0,1-.49-.43l-1-2.34-1.9,1.68a.57.57,0,0,1-.6.22c-.49-.05-.65-.33-.55-.75l.22-.45,2.28-2-1-2.28-.06-.43c.06-.37.33-.59.82-.49a.75.75,0,0,1,.54.44l.71,1.84,1.47-1.35a1,1,0,0,1,.65-.21c.49.11.6.37.54.82l-.22.31L89.3,4.19Z"/><path class="cls-1" d="M101.46,11.47,103,6.53a.68.68,0,0,1,1.3.37l-1.52,5a.59.59,0,0,1-.87.43.61.61,0,0,1-.43-.86Z"/><path class="cls-1" d="M110.09,19.4a2.75,2.75,0,0,1-2.44,0A2.87,2.87,0,0,1,106,17.6a3.5,3.5,0,0,1,.16-2.55,3.32,3.32,0,0,1,1.79-1.84,2.76,2.76,0,0,1,2.44.05A2.82,2.82,0,0,1,112,15.05a3.51,3.51,0,0,1-1.9,4.34Zm-2-1.12a1.45,1.45,0,0,0,1.41-.06,2.27,2.27,0,0,0,1-1.12,2.3,2.3,0,0,0,.27-1.52,1.61,1.61,0,0,0-1-1.12,1.44,1.44,0,0,0-1.41.06,2.31,2.31,0,0,0-1,1.12c-.6,1.26-.33,2.13.71,2.62Z"/><path class="cls-1" d="M110.9,31.61a.62.62,0,0,1-1,.16.66.66,0,0,1-.22-.91l.05-.07,1.41-2,.06-3,.1-.37c.27-.43.6-.49.93-.16a.67.67,0,0,1,.33.54l-.06,2.34,2.17-.75a.69.69,0,0,1,.65.05.65.65,0,0,1,.22.89l-.06.08-.37.27-2.82.92Z"/><path class="cls-1" d="M97.17,18.2l.43.75c.22.33.22.6,0,.82a.7.7,0,0,1-1,.11c-.1-.06-.1-.16-.16-.27L93.91,15A1,1,0,0,1,94,13.74a.9.9,0,0,1,1.19-.22l4.93,1.92a.77.77,0,0,1,.33.11.61.61,0,0,1,.06.85h0c-.27.27-.54.37-.81.22l-.82-.33Zm-.71-1.1,1.14-1.35-2.55-1.09Z"/><path class="cls-1" d="M81.64,15.49a1.41,1.41,0,0,1,.82.75,1.89,1.89,0,0,1-1.12,2.71l-1.68.7a.63.63,0,0,1-1-.33L76.6,14.67a.63.63,0,0,1,.23-.86l.14-.06,1.58-.7A1.56,1.56,0,0,1,79.85,13a1.34,1.34,0,0,1,.92.87,1.24,1.24,0,0,1-.22,1.52v.06A1.26,1.26,0,0,1,81.64,15.49Zm-2,2.83,1-.37c.49-.27.65-.65.44-1.09s-.65-.54-1.2-.27l-.86.37Zm-.44-2.77c.44-.22.6-.54.37-.92s-.49-.49-1-.27l-.59.27.54,1.19Z"/><path class="cls-1" d="M64.17,27.81l-2.34-4.67a.54.54,0,0,1,.27-.87.58.58,0,0,1,.92.27l.86,1.74.92-3.15c.05-.27.16-.43.37-.49.37-.22.71-.16.87.27.1.11.1.37-.05.81L65.25,24l2.82,1a1,1,0,0,1,.7.43c.16.37,0,.65-.37.92a1.5,1.5,0,0,1-.82-.05L64.33,25.1l1,2.06a.66.66,0,0,1-.23.9l0,0C64.65,28.3,64.33,28.24,64.17,27.81Z"/><path class="cls-1" d="M109.93,73.52a6.29,6.29,0,0,0,.6-3.85,5.45,5.45,0,0,0-2.25-3.85,2.54,2.54,0,0,1,1.2.75,7.08,7.08,0,0,1,1.12,1.84A5.11,5.11,0,0,1,109.93,73.52Z"/><path class="cls-1" d="M79.14,100.31a4.36,4.36,0,0,1-1.19-.82A6.49,6.49,0,0,0,75.31,98a9.25,9.25,0,0,0-3.37-.58,8.48,8.48,0,0,0-5.1,1.5,6.16,6.16,0,0,0-2.5,3.86L64,104.62a6.26,6.26,0,0,0,0,1.59.75.75,0,0,0,0,.13c.37,1.06,1.54,1.64,3.56,1.77,1.26.06,2.54.1,3.85.1q2.81,0,5.86-.21c1.7-.15,3.5-.31,5.1-.54a2.29,2.29,0,0,0,2-1.5,6.8,6.8,0,0,0-.08-5.27,2.21,2.21,0,0,0-2-1.35.71.71,0,0,0-.52.22,3.18,3.18,0,0,1-1.29.9l1.5-11.33q-.69-.17-1.37-.4Z"/><path class="cls-1" d="M97.78,60.14v.14c0,.43-.05.86-.08,1.28a14.31,14.31,0,0,1,5.88,3,7.48,7.48,0,0,1,1.26-.79A16.24,16.24,0,0,0,97.78,60.14Z"/><path class="cls-1" d="M65.17,64a.71.71,0,1,0,.7,1.23h0L69.72,63c-.06-.51-.1-1-.15-1.54Z"/><path class="cls-1" d="M93.65,61a.67.67,0,0,0,0,.12,5.12,5.12,0,0,1,0-.55A.69.69,0,0,0,93.65,61Z"/><path class="cls-1" d="M101.89,35.06c-.23.75-.46,1.55-.67,2.35l.57,1.42A23,23,0,0,1,101.89,35.06Z"/><path class="cls-1" d="M96.52,25.59v0l.2.34A3.08,3.08,0,0,1,96.52,25.59Z"/><path class="cls-1" d="M100.47,36.83l.22-.73L97.8,28.89l-.33-.56-.28.29Z"/><path class="cls-1" d="M96.78,27.1l-.53-.92h0l.42,1Z"/><path class="cls-1" d="M101.78,38.83l-.57-1.42-.21.79,1.1,2.76.55.75a20.53,20.53,0,0,1-.43-3.26c0-1.25.11-3,.27-5.27h0q-.31.91-.6,1.87A23,23,0,0,0,101.78,38.83Z"/><path class="cls-1" d="M74.8,84.87a117.74,117.74,0,0,1-4.74-22l-.34.19c.33,3,.73,5.94,1.23,8.81a80.93,80.93,0,0,0,3.48,13.52,20.47,20.47,0,0,0,6.22,3.37l.12-.93A16.47,16.47,0,0,1,74.8,84.87Z"/><path class="cls-1" d="M96.3,85.74q-8.06,2.62-12.54,2.44a13.47,13.47,0,0,1-1.6-.13L82,89.11a20.38,20.38,0,0,0,3.91.59,33.39,33.39,0,0,0,11.78-2,192.72,192.72,0,0,1,0-26.19,8.69,8.69,0,0,0-1.43-.18A184.56,184.56,0,0,0,96.3,85.74Z"/><path class="cls-1" d="M80.76,87.78l-.13.93q.68.22,1.37.4L82.15,88A13.65,13.65,0,0,1,80.76,87.78Z"/><path class="cls-1" d="M97.55,28.24l-.07.09.33.57.88,1.53a12.6,12.6,0,0,0,2.72,3.48c-.25.73-.48,1.47-.71,2.22l-.22.73A111.48,111.48,0,0,0,96.35,60a10,10,0,0,1,1.41.17A123.2,123.2,0,0,1,101,38.21c.07-.26.13-.53.21-.79q.33-1.21.67-2.35.29-1,.6-1.87l.05-.16c-1.18-1.22-2.19-2.34-3.06-3.37A2.42,2.42,0,0,1,98.24,29Z"/><path class="cls-1" d="M97.78,60.14A10,10,0,0,0,96.37,60q-.06.7-.1,1.41a8.69,8.69,0,0,1,1.43.18c0-.43,0-.86.08-1.28C97.77,60.23,97.78,60.18,97.78,60.14Z"/><path class="cls-1" d="M69.27,49.69a120.22,120.22,0,0,1,.87-14.28,77.22,77.22,0,0,1,2.17-10.8c2-.87,5.16-1.09,9.55-.75a99.13,99.13,0,0,1,14.38,2.33h0l.53.92.41-.42c-.18-.26-.34-.51-.48-.75l-.2-.34,0-.07H96.4C84,22.65,75.6,22.11,71.48,24A68.93,68.93,0,0,0,69.15,38.5,133.13,133.13,0,0,0,69,55.34c.14,2.1.31,4.14.52,6.15l.33-.19Q69.3,55.53,69.27,49.69Z"/><path class="cls-1" d="M69.89,61.3l-.33.19c.05.51.1,1,.15,1.54l.34-.19Q70,62.07,69.89,61.3Z"/><path class="cls-1" d="M73.28,60.8l-.75-1-.17.06L73.18,61A.7.7,0,0,0,73.28,60.8Z"/><path class="cls-1" d="M73.24,60.19a.7.7,0,0,0-.61-.34l.69.75A.69.69,0,0,0,73.24,60.19Z"/><path class="cls-1" d="M72,59.19l.51.65h.09Z"/><path class="cls-1" d="M72.63,59.85h-.09l.75,1a.69.69,0,0,0,0-.19Z"/><path class="cls-1" d="M93.59,61.9c.1-.2.19-.4.27-.6a.68.68,0,0,1-.15-.24C93.67,61.33,93.64,61.6,93.59,61.9Z"/><path class="cls-1" d="M92.9,60.31q.17-.46.37-1h0Q93.08,59.85,92.9,60.31Z"/><path class="cls-1" d="M92.9,60.31q-.34.92-.64,1.67Z"/><path class="cls-1" d="M93.36,58.94a1.76,1.76,0,0,1,.1.2l.17-.5Z"/><path class="cls-1" d="M93.15,59.19a9.55,9.55,0,0,1-6.95,4.24c-2.66.33-6.19-.16-10.53-1.46L72.09,59l-.49-.11.75,1,.17-.06L72,59.19l.6.66a.7.7,0,0,1,.61.34.69.69,0,0,1,.08.42l2.3,2.54-2.3-2.54a.69.69,0,0,1,0,.19l1.12,1.45L73.27,60.8a.7.7,0,0,1-.08.17l2.2,2.84a12.72,12.72,0,0,0,1.9,6.62,5.24,5.24,0,0,0,1.79,2,2.93,2.93,0,0,0,1.84.7,12.07,12.07,0,0,0,4.88-.87A8.13,8.13,0,0,0,89,69.72a20.35,20.35,0,0,0,2.66-5.21l1.84-5.37a1.76,1.76,0,0,0-.1-.2Zm-4.23,9.5a7.5,7.5,0,0,1-3.15,2.39,12.18,12.18,0,0,1-4.76.82,4,4,0,0,1-2.48-.9,6.39,6.39,0,0,1,0-.65,5.87,5.87,0,0,1,2.28-4.67,7.93,7.93,0,0,1,1.95-1.23,14.15,14.15,0,0,0,4.75-.65A8.1,8.1,0,0,1,91,65.07a18.13,18.13,0,0,1-2.1,3.62Zm4-8.38q-.34.92-.64,1.67.3-.75.64-1.67.17-.46.37-1h0q-.21.5-.38,1Z"/><path class="cls-1" d="M93.64,58.27a1.52,1.52,0,0,0-1.09-.43,1.71,1.71,0,0,0-1.3.49,2,2,0,0,1,2.12.62l.27-.3-.17.5a3.13,3.13,0,0,1,.26,1.37.69.69,0,0,1,.43-.37,3.4,3.4,0,0,0,0-.42A2.52,2.52,0,0,0,93.64,58.27Z"/><path class="cls-1" d="M93.73,60.51c0,.18,0,.35,0,.55a.68.68,0,0,0,.15.24,4.92,4.92,0,0,0,.3-1.15A.69.69,0,0,0,93.73,60.51Z"/><path class="cls-1" d="M93.64,58.64l-.27.3a1.76,1.76,0,0,1,.1.2Z"/><path class="cls-1" d="M79.85,51.7a4.72,4.72,0,0,0-3.58-1.52,4.61,4.61,0,0,0-3.53,1.52,5.38,5.38,0,0,0-1.52,3.74,5.29,5.29,0,0,0,1.52,3.74,4.8,4.8,0,0,0,3.53,1.52,4.93,4.93,0,0,0,3.58-1.52,5.59,5.59,0,0,0,1.34-2.56A4.23,4.23,0,0,1,80,58.7,4.16,4.16,0,0,1,76.81,60a4.34,4.34,0,0,1-3.15-1.3,4.15,4.15,0,0,1-1.3-3.09,4.35,4.35,0,0,1,1.3-3.15,4.52,4.52,0,0,1,3.15-1.25A4.32,4.32,0,0,1,80,52.45a4.4,4.4,0,0,1,1.36,3.07v-.09A5.58,5.58,0,0,0,79.85,51.7Z"/><path class="cls-1" d="M81.32,55.61v-.08a5.54,5.54,0,0,1-.12,1.1A4.2,4.2,0,0,0,81.32,55.61Z"/><path class="cls-1" d="M99.78,29.71a2,2,0,0,0,1.63-.63,2.08,2.08,0,0,0,.65-1.58,2.3,2.3,0,0,0-.75-1.63l-1.12-1.12a.67.67,0,0,0-.94-.09l-.09.09-1.94,2a35.55,35.55,0,0,0,2.3,3Zm-1.36-2.28,1.36-1.35.65.6a.87.87,0,0,1,0,1.35.84.84,0,0,1-1.36,0Z"/><polygon class="cls-1" points="97.2 28.61 97.48 28.32 96.78 27.1 96.65 27.23 97.2 28.61"/><path class="cls-1" d="M97.47,28.33l.07-.07.71.75a2.42,2.42,0,0,0,1.23.65,35.55,35.55,0,0,1-2.3-3l-.41.42Z"/><path class="cls-1" d="M119.93,62.28a3.49,3.49,0,0,0-1.32-1.83c-.51-.34-1.4-.47-2.77.83l0,0a6.4,6.4,0,0,1-.57.68l-.62.71A10.32,10.32,0,0,1,113.44,64l-1,.46a11.51,11.51,0,0,0-3.18-.27c-.51-1-1.68-1.29-3.6-.8-.3.12-.58.25-.85.37l.6.5a5.55,5.55,0,0,1,1.12-.37c1.09-.32,1.9-.16,2.28.54a7.48,7.48,0,0,0-2.39.75l.33.31h0c1.81-.88,4.27-1,7.33-.25a7.48,7.48,0,0,0-1-.49,10.4,10.4,0,0,0,1.19-.65,4.12,4.12,0,0,0,1-.75l-.54.11.7-.87a9.39,9.39,0,0,1,1-1c.87-.82,1.52-.92,2-.37a3.61,3.61,0,0,1,1,2.06,4,4,0,0,1-.33,2.23,3.48,3.48,0,0,1-1.52,1.68,4.42,4.42,0,0,1-2.55.75c0,.05.22.11.6.16a1.25,1.25,0,0,1-.6.22l-.7.16a1.58,1.58,0,0,0,1.12.05,43.1,43.1,0,0,1-.65,5.59l-.32,1.41c-.11.43-.16.75-.22,1a31.16,31.16,0,0,1-.65,4.07c-.37,1.63-1,2.55-1.63,2.83a25.16,25.16,0,0,0,.87-3.8,8.36,8.36,0,0,0,.16-3.37c.22-.16.37-.33.37-.54a8.23,8.23,0,0,1-2.34,1,25.44,25.44,0,0,1-2.55.7,1.42,1.42,0,0,0,.87.11,7.13,7.13,0,0,1,.16,4.67,4.69,4.69,0,0,1-.75,1.74,1.16,1.16,0,0,1-1.09.65c-.6-.11-1.09-.7-1.36-1.74a7.82,7.82,0,0,1-.32-1.41c-.16-.6-.27-1-.37-1.3-.16-.6-.44-1.41-.82-2.44a24,24,0,0,1-.92-2.34,11.36,11.36,0,0,1-.7-5.16,7.11,7.11,0,0,1,2.25-3.84l-.31-.29-.2.17a6.15,6.15,0,0,0-2,3.53,2.34,2.34,0,0,1-.37-2.44,5.64,5.64,0,0,1,1.41-2.06l.13-.11-.63-.51a3.8,3.8,0,0,0-1.64,3.1,4.33,4.33,0,0,0,.12,1.5,3,3,0,0,0,.75,1.15,15.16,15.16,0,0,0,1.33,7.28,9.31,9.31,0,0,1,.75,2.19l.65,2.44a6.79,6.79,0,0,0,.78,1.95,1.87,1.87,0,0,0,1.25.94,2.24,2.24,0,0,0,1.8,1.08,2,2,0,0,0,.37,0c1-.17,1.71-.9,2.27-2.25.86-.16,1.5-.87,2-2.21a16.5,16.5,0,0,0,.93-5.44,30.21,30.21,0,0,0,1.15-7.82l.26-.15a4.43,4.43,0,0,0,2.51-1.19,4.74,4.74,0,0,0,1-4.79Zm-8.15,20.41a4.8,4.8,0,0,1-1.52,2.55c-.6.54-1.36.43-2.07-.33q1.63-.49,2.12-3.58a10.48,10.48,0,0,0,0-2.28,4.76,4.76,0,0,0-.49-1.68,13.55,13.55,0,0,0,2.93-1,13.53,13.53,0,0,1-.16,2.71,29.84,29.84,0,0,1-.87,3.64Z"/><path class="cls-1" d="M105.56,66.26a4.72,4.72,0,0,1,1.23-.79h0l-.33-.31a6.82,6.82,0,0,0-1.2.81Z"/><path class="cls-1" d="M105.44,64.25l-.6-.5a7.48,7.48,0,0,0-1.26.79l.63.51A5.24,5.24,0,0,1,105.44,64.25Z"/></g></g></svg>